<svg width="512.003" height="512.003" xmlns="http://www.w3.org/2000/svg">

 <g>
  <title>background</title>
  <rect fill="none" id="canvas_background" height="402" width="582" y="-1" x="-1"/>
 </g>
 <g>
  <title>Layer 1</title>
  <rect stroke="null" id="svg_35" height="507.889724" width="366.972347" y="1.995456" x="76.429691" fill-opacity="null" stroke-opacity="null" stroke-width="null" fill="#003c31"/>
  <path id="svg_6" fill="#ff8f00" d="m102.869066,484.919895l312.46675,0l0,-456.85041l-312.46675,0l0,456.85041z"/>
  <rect transform="matrix(1.0699999999999998,0,0,1.0699999999999998,-2.920763635634387,-62.92010467529323) " id="svg_7" fill="#ff8f00" height="426.966" width="135.164" y="85.037" x="255.732"/>
  <rect transform="matrix(1.0699999999999998,0,0,1.0699999999999998,-2.920763635634387,-62.92010467529323) " id="svg_9" fill="#003c31" height="30.021" width="195.796" y="299.878" x="146.987"/>
  <rect transform="matrix(1.0699999999999998,0,0,1.0699999999999998,-2.920763635634387,-62.92010467529323) " id="svg_10" fill="#003c31" height="30.021" width="195.796" y="353.275" x="146.987"/>
  <rect transform="matrix(1.0699999999999998,0,0,1.0699999999999998,-2.920763635634387,-62.92010467529323) " id="svg_11" fill="#003c31" height="30.021" width="195.796" y="406.672" x="146.987"/>
  <rect transform="matrix(1.0699999999999998,0,0,1.0699999999999998,-2.920763635634387,-62.92010467529323) " id="svg_13" fill="#003c31" height="30.021" width="87.047" y="299.878" x="255.732"/>
  <rect transform="matrix(1.0699999999999998,0,0,1.0699999999999998,-2.920763635634387,-62.92010467529323) " id="svg_14" fill="#003c31" height="30.021" width="87.047" y="406.672" x="255.732"/>
  <rect transform="matrix(1.0699999999999998,0,0,1.0699999999999998,-2.920763635634387,-62.92010467529323) " id="svg_15" fill="#003c31" height="30.021" width="87.047" y="353.275" x="255.732"/>
  <path id="svg_17" fill="#003c31" d="m151.113226,165.446785c0,-31.07708 23.84923,-52.90294 56.37188,-52.90294c19.80356,0 35.41379,7.22785 45.38726,20.23584l-21.53696,19.22362c-5.92673,-7.51675 -13.00799,-11.85346 -22.11476,-11.85346c-14.16466,0 -23.70478,9.82902 -23.70478,25.2948s9.54012,25.2948 23.70478,25.2948c9.10677,0 16.1891,-4.33671 22.11476,-11.85346l21.53696,19.22362c-9.97347,13.00799 -25.58477,20.23584 -45.38726,20.23584c-32.52265,0.00428 -56.37188,-21.82158 -56.37188,-52.89866z"/>
  <path id="svg_18" fill="#003c31" d="m370.822746,114.856115l-42.78502,101.18134l-33.53487,0l-42.78609,-101.18134l36.71384,0l24.1392,59.11857l24.71807,-59.11857l33.53487,0z"/>
  <polygon id="svg_19" fill="#003c31" points="337.2889494991312,114.85611114501924 312.57194296836946,173.97574996948214 288.4327455806742,114.85611114501924 270.71247061729525,114.85611114501924 270.71247061729525,159.77578414916962 294.50393759727575,216.0374636840817 328.03881125450226,216.0374636840817 370.82274558067417,114.85611114501924 "/>
 </g>
</svg>