<svg width="512.003" height="512.003" xmlns="http://www.w3.org/2000/svg">

 <g>
  <title>background</title>
  <rect fill="none" id="canvas_background" height="402" width="582" y="-1" x="-1"/>
 </g>
 <g>
  <title>Layer 1</title>
  <rect stroke="null" id="svg_36" height="566.605271" width="554.862174" y="-31.276671" x="-11.643667" fill-opacity="null" stroke-opacity="null" stroke-width="null" fill="#003c31"/>
  <rect stroke="null" id="svg_35" height="507.889724" width="366.972347" y="1.995456" x="76.429691" fill-opacity="null" stroke-opacity="null" stroke-width="null" fill="#003c31"/>
  <path stroke="null" id="svg_6" fill="#ff8f00" d="m-46.855637,540.699688l568.858084,0l0,-564.495652l-568.858084,0l0,564.495652z"/>
  <rect transform="matrix(1.0699999999999998,0,0,1.0699999999999998,-2.920763635634387,-62.92010467529323) " id="svg_7" fill="#ff8f00" height="426.966" width="135.164" y="85.037" x="255.732"/>
  <rect transform="matrix(2.1616184795298476,0,0,1.5237086166623233,-223.51958238932542,-288.46755921461005) " id="svg_11" fill="#003c31" height="30" width="196" y="468.442765" x="124.616532"/>
  <path stroke="null" id="svg_17" fill="#003c31" d="m50.318167,136.770103c0,-56.371962 45.178995,-95.962766 106.788557,-95.962766c37.515044,0 67.086418,13.110887 85.979748,36.706602l-40.798727,34.870496c-11.227352,-13.634934 -24.641797,-21.501466 -41.893287,-21.501466c-26.832946,0 -49.280341,17.829253 -49.280341,45.883253s22.447395,45.883253 49.280341,45.883253c17.251489,0 30.667962,-7.866533 41.893287,-21.501467l40.798727,34.870496c-18.89333,23.595715 -48.466731,36.706602 -85.979748,36.706602c-61.609562,0.007764 -106.788557,-39.58304 -106.788557,-95.955002z"/>
  <path stroke="null" id="svg_18" fill="#003c31" d="m468.682041,43.418826l-78.640905,181.425972l-61.638689,0l-78.642871,-181.425972l67.481787,0l44.368999,106.00417l45.43299,-106.00417l61.638689,0z"/>
  <rect transform="matrix(2.1616184795298476,0,0,1.5237086166623233,-223.51958238932542,-288.46755921461005) " id="svg_38" fill="#003c31" height="30" width="196" y="358.619022" x="125.069246"/>
  <rect transform="matrix(2.1616184795298476,0,0,1.5237086166623233,-223.51958238932542,-288.46755921461005) " id="svg_39" fill="#003c31" height="30" width="196" y="414.494259" x="125.069246"/>
 </g>
</svg>