<?xml version="1.0" encoding="UTF-8"?>
<svg xmlns="http://www.w3.org/2000/svg" xmlns:xlink="http://www.w3.org/1999/xlink" viewBox="0 0 100 100" width="100px" height="100px">
<g id="surface4052590">
<path style=" stroke:none;fill-rule:nonzero;fill:rgb(14.901961%,48.627451%,72.549021%);fill-opacity:1;" d="M 50 6 C 25.699219 6 6 25.699219 6 50 C 6 74.300781 25.699219 94 50 94 C 74.300781 94 94 74.300781 94 50 C 94 25.699219 74.300781 6 50 6 Z M 42 22 L 76 22 L 73.960938 23.761719 C 73.960938 23.839844 74 23.921875 74 24 L 74 34.558594 C 75.199219 35.238281 76 36.519531 76 38 L 76 50 C 76 52.199219 74.199219 54 72 54 C 69.800781 54 68 52.199219 68 50 L 68 38 C 68 36.519531 68.800781 35.238281 70 34.558594 L 70 27.140625 L 62.820312 33.300781 C 63.519531 34.699219 64 36.402344 64 38.480469 C 64 43.921875 60.960938 46.621094 57.941406 49.019531 C 57 49.980469 55.898438 51.019531 55.898438 52.640625 C 55.898438 54.242188 57 55.140625 57.800781 55.78125 L 60.378906 57.839844 C 63.558594 60.558594 66.441406 63.0625 66.441406 68.121094 C 66.441406 75.019531 59.859375 82 47.460938 82 C 37 82 31.960938 76.941406 31.960938 71.5 C 31.960938 68.859375 33.257812 65.117188 37.519531 62.539062 C 41.980469 59.757812 48.039062 59.378906 51.300781 59.160156 C 50.28125 57.839844 49.121094 56.460938 49.121094 54.160156 C 49.121094 52.941406 49.5 52.199219 49.859375 51.300781 C 49.058594 51.378906 48.257812 51.460938 47.539062 51.460938 C 39.9375 51.460938 35.597656 45.699219 35.558594 40 L 22 40 Z M 48.539062 28.480469 C 46.679688 28.480469 44.660156 29.421875 43.5 30.921875 C 42.28125 32.441406 41.898438 34.421875 41.898438 36.320312 C 41.898438 41.242188 44.742188 49.398438 50.921875 49.398438 C 52.742188 49.398438 54.679688 48.519531 55.839844 47.339844 C 57.480469 45.640625 57.640625 43.300781 57.640625 42 C 57.640625 36.699219 54.539062 28.480469 48.539062 28.480469 Z M 52.078125 61.21875 C 51.4375 61.21875 47.539062 61.359375 44.519531 62.398438 C 42.917969 63 38.320312 64.742188 38.320312 69.960938 C 38.320312 75.179688 43.28125 78.921875 51 78.921875 C 57.941406 78.921875 61.601562 75.519531 61.601562 70.980469 C 61.601562 67.242188 59.242188 65.261719 53.761719 61.300781 C 53.183594 61.222656 52.816406 61.21875 52.078125 61.21875 Z M 52.078125 61.21875 "/>
</g>
</svg>
